<?xml version="1.0" standalone="no"?>
<svg xmlns:xlink="http://www.w3.org/1999/xlink" id="wave" style="transform:rotate(180deg); transition: 0.3s" viewBox="0 0 1440 490" version="1.1" xmlns="http://www.w3.org/2000/svg"><defs><linearGradient id="sw-gradient-0" x1="0" x2="0" y1="1" y2="0"><stop stop-color="rgba(255, 255, 255, 0.21)" offset="0%"/><stop stop-color="rgba(79, 88, 154, 0.14)" offset="100%"/></linearGradient></defs><path style="transform:translate(0, 0px); opacity:1" fill="url(#sw-gradient-0)" d="M0,245L80,269.5C160,294,320,343,480,334.8C640,327,800,261,960,196C1120,131,1280,65,1440,65.3C1600,65,1760,131,1920,179.7C2080,229,2240,261,2400,236.8C2560,212,2720,131,2880,147C3040,163,3200,278,3360,343C3520,408,3680,425,3840,375.7C4000,327,4160,212,4320,179.7C4480,147,4640,196,4800,228.7C4960,261,5120,278,5280,285.8C5440,294,5600,294,5760,253.2C5920,212,6080,131,6240,89.8C6400,49,6560,49,6720,65.3C6880,82,7040,114,7200,130.7C7360,147,7520,147,7680,138.8C7840,131,8000,114,8160,89.8C8320,65,8480,33,8640,57.2C8800,82,8960,163,9120,179.7C9280,196,9440,147,9600,106.2C9760,65,9920,33,10080,65.3C10240,98,10400,196,10560,220.5C10720,245,10880,196,11040,220.5C11200,245,11360,343,11440,392L11520,441L11520,490L11440,490C11360,490,11200,490,11040,490C10880,490,10720,490,10560,490C10400,490,10240,490,10080,490C9920,490,9760,490,9600,490C9440,490,9280,490,9120,490C8960,490,8800,490,8640,490C8480,490,8320,490,8160,490C8000,490,7840,490,7680,490C7520,490,7360,490,7200,490C7040,490,6880,490,6720,490C6560,490,6400,490,6240,490C6080,490,5920,490,5760,490C5600,490,5440,490,5280,490C5120,490,4960,490,4800,490C4640,490,4480,490,4320,490C4160,490,4000,490,3840,490C3680,490,3520,490,3360,490C3200,490,3040,490,2880,490C2720,490,2560,490,2400,490C2240,490,2080,490,1920,490C1760,490,1600,490,1440,490C1280,490,1120,490,960,490C800,490,640,490,480,490C320,490,160,490,80,490L0,490Z"/></svg>